[Header]
FileType HTR
DataType HTRS
FileVersion 1
NumSegments 22
NumFrames 4
DataFrameRate 24
EulerRotationOrder ZYX
CalibrationUnits mm
RotationUnits Degrees
GlobalAxisofGravity Y
BoneLengthAxis Y
ScaleFactor 1.0
[SegmentNames&Hierarchy]
reference	GLOBAL
Hips	reference
Spine	Hips
Spine1	Spine
Neck	Spine1
Head	Neck
LeftShoulder	Spine1
LeftArm	LeftShoulder
LeftForeArm	LeftArm
LeftHand	LeftForeArm
RightShoulder	Spine1
RightArm	RightShoulder
RightForeArm	RightArm
RightHand	RightForeArm
LeftUpLeg	Hips
LeftLeg	LeftUpLeg
LeftFoot	LeftLeg
LeftToeBase	LeftFoot
RightUpLeg	Hips
RightLeg	RightUpLeg
RightFoot	RightLeg
RightToeBase	RightFoot
[BasePosition]
reference	0	0	0	0	0	0	1
Hips	0	0	0	0	0	0	1
Spine	0	0	0	0	-0	90	1
Spine1	0	0	0	0	0	0	1
Neck	0	0	0	-7.352430803	-7.352430803	90	1
Head	0	0	0	0	-0	90	1
LeftShoulder	0	0	0	0	0	0	1
LeftArm	0	0	0	0	0	0	1
LeftForeArm	0	0	0	0	0	0	1
LeftHand	0	0	0	0	0	0	1
RightShoulder	0	0	0	0	-0	180	1
RightArm	0	0	0	0	-0	180	1
RightForeArm	0	0	0	0	-0	180	1
RightHand	0	0	0	0	-0	180	1
LeftUpLeg	0	0	0	0	-0	-90	1
LeftLeg	0	0	0	0	-0	-90	1
LeftFoot	0	0	0	66.57150701	-66.57150701	-90	1
LeftToeBase	0	0	0	0	-90	0	1
RightUpLeg	0	0	0	0	-0	-90	1
RightLeg	0	0	0	0	-0	-90	1
RightFoot	0	0	0	66.57150701	-66.57150701	-90	1
RightToeBase	0	0	0	0	-90	0	1
[reference]
55	0	0	0	0	-0	0	1.0
56	0	0	0	0	-0	0	1.0
57	0	0	0	0	-0	0	1.0
58	0	0	0	0	-0	0	1.0
[Hips]
55	0.331852138	8.717380524	-0.7048399448	16.98904419	-31.99333191	-13.55400085	1.0
56	0.2888582051	8.615229607	-0.8615558147	17.82188797	-32.54734039	-8.330468178	1.0
57	0.2259911746	8.590988159	-0.9057526588	17.21804619	-33.79381561	-6.782848835	1.0
58	0.205729872	8.580800056	-1.051128745	22.65131378	-37.80152893	-11.75530243	1.0
[Spine]
55	0	0.7478299737	0	-16.4197979	-3.336670399	-92.52488708	1.0
56	0	0.7478299737	0	-17.80787277	-0.4588730633	-93.85515594	1.0
57	0	0.7478299737	0	-19.53714943	2.694005728	-91.11116791	1.0
58	0	0.7478299737	0	-22.97465324	6.361270428	-89.170784	1.0
[Spine1]
55	0	2.049309969	0	5.99991703	-0.7090757489	-0.1801208854	1.0
56	0	2.049309969	0	3.794155598	0.1952911466	-3.189274549	1.0
57	0	2.049309969	0	8.30062294	1.577141762	-8.359819412	1.0
58	0	2.049309969	0	8.756437302	2.563425064	-6.886518478	1.0
[Neck]
55	0	2.231709957	0	7.062227249	-18.79712296	-75.6313324	1.0
56	0	2.231709957	0	6.068523884	-19.53789711	-79.37308502	1.0
57	0	2.231709957	0	1.160047293	-18.61955261	-77.91298676	1.0
58	0	2.231709957	0	-0.2965123355	-17.50876236	-78.15371704	1.0
[Head]
55	0	1.413589954	0.1823999882	-11.8513279	-26.33826447	-86.99308777	1.0
56	0	1.413589954	0.1823999882	-10.97238064	-25.86292648	-84.11077881	1.0
57	0	1.413589954	0.1823999882	-8.616613388	-25.68295097	-84.95358276	1.0
58	0	1.413589954	0.1823999882	-5.624352455	-24.74253845	-88.36469269	1.0
[LeftShoulder]
55	0.3649300039	1.825889945	-0.04271000251	-10.81814957	-12.41145515	8.268715858	1.0
56	0.3649300039	1.825889945	-0.04271000251	-13.35713196	-9.956641197	7.206279755	1.0
57	0.3649300039	1.825889945	-0.04271000251	-15.99359322	-7.987400532	6.69890976	1.0
58	0.3649300039	1.825889945	-0.04271000251	-15.54732895	-9.085579872	5.273740768	1.0
[LeftArm]
55	1.24003005	0	0	53.85759735	-3.248135328	-75.05526733	1.0
56	1.24003005	0	0	55.05379868	0.3777393699	-75.81204987	1.0
57	1.24003005	0	0	53.12031555	0.6406391263	-79.18736267	1.0
58	1.24003005	0	0	54.14448166	2.243704319	-83.95387268	1.0
[LeftForeArm]
55	2.847419977	0	0	401.4114075	-69.89538574	-404.0010376	1.0
56	2.847419977	0	0	383.0813599	-57.00285721	-389.4421082	1.0
57	2.847419977	0	0	368.9603271	-37.70074081	-379.0567627	1.0
58	2.847419977	0	0	357.5501709	-18.90911293	-367.0649414	1.0
[LeftHand]
55	2.258270025	0	0	9.559325218	-13.09605217	2.79484725	1.0
56	2.258270025	0	0	6.944130421	-12.95951462	-0.8682619333	1.0
57	2.258270025	0	0	3.163238525	-11.48387241	-7.541530609	1.0
58	2.258270025	0	0	-2.932384253	-8.312389374	-9.580576897	1.0
[RightShoulder]
55	-0.3646599948	1.825889945	-0.04271000251	-5.367053986	1.333774567	178.453125	1.0
56	-0.3646599948	1.825889945	-0.04271000251	-7.598042488	3.30991745	178.182663	1.0
57	-0.3646599948	1.825889945	-0.04271000251	-9.377102852	6.448322296	179.1150818	1.0
58	-0.3646599948	1.825889945	-0.04271000251	-12.87967682	9.86371994	178.7284546	1.0
[RightArm]
55	-1.24003005	0	0	48.28837585	-3.774096966	-113.860405	1.0
56	-1.24003005	0	0	52.33815384	-3.112350464	-106.5670929	1.0
57	-1.24003005	0	0	59.22366333	1.837557316	-100.0558243	1.0
58	-1.24003005	0	0	68.64984131	1.899461985	-94.56484985	1.0
[RightForeArm]
55	-2.847419977	0	0	-319.5819092	71.58732605	-155.2472992	1.0
56	-2.847419977	0	0	-338.0081482	55.96814346	-171.2556	1.0
57	-2.847419977	0	0	-347.7159424	34.93931198	-176.8614197	1.0
58	-2.847419977	0	0	-352.2194824	17.25387573	-176.4617462	1.0
[RightHand]
55	-2.258270025	0	0	17.78056526	20.81549072	154.8561401	1.0
56	-2.258270025	0	0	14.05569553	19.67581558	161.4809113	1.0
57	-2.258270025	0	0	9.271412849	18.19598579	167.368042	1.0
58	-2.258270025	0	0	6.939665794	12.38851166	177.3765259	1.0
[LeftUpLeg]
55	0.9119900465	0	0	-17.73820686	25.95569992	92.17807007	1.0
56	0.9119900465	0	0	-22.98712349	16.32306671	90.70792389	1.0
57	0.9119900465	0	0	-22.10210419	4.111622334	94.16599274	1.0
58	0.9119900465	0	0	-23.02649498	10.35219097	97.38964081	1.0
[LeftLeg]
55	0	-4.371409893	0	20.3207531	2.145730019	86.08703613	1.0
56	0	-4.371409893	0	26.80636597	1.145922422	84.03843689	1.0
57	0	-4.371409893	0	25.98635292	5.059099197	83.21473694	1.0
58	0	-4.371409893	0	23.07351303	-0.2484358847	81.91001129	1.0
[LeftFoot]
55	0	-3.918009996	0	-102.3663635	120.8674316	-44.50354767	1.0
56	0	-3.918009996	0	-91.6190033	122.3390732	-31.19435883	1.0
57	0	-3.918009996	0	-86.11403656	123.6875763	-24.56219482	1.0
58	0	-3.918009996	0	-85.1342926	123.3972778	-23.31708336	1.0
[LeftToeBase]
55	0	-0.5927900076	1.367989898	0	0	0	1.0
56	0	-0.5927900076	1.367989898	0	0	0	1.0
57	0	-0.5927900076	1.367989898	0	0	0	1.0
58	0	-0.5927900076	1.367989898	0	0	0	1.0
[RightUpLeg]
55	-0.9119900465	0	0	-5.568325043	-15.73874474	96.46198273	1.0
56	-0.9119900465	0	0	-3.835195065	-19.11747742	95.44056702	1.0
57	-0.9119900465	0	0	-4.457409382	-21.01727867	93.18119812	1.0
58	-0.9119900465	0	0	-12.14213467	-18.76692772	99.87465668	1.0
[RightLeg]
55	0	-4.371409893	0	5.350863457	-17.14396286	89.1102066	1.0
56	0	-4.371409893	0	-5.067474842	-18.50561333	92.1519165	1.0
57	0	-4.371409893	0	-3.455434322	-12.04651642	92.36837769	1.0
58	0	-4.371409893	0	2.591769934	-8.126852989	89.05116272	1.0
[RightFoot]
55	0	-3.918009996	0	66.02468872	50.45254517	97.50837708	1.0
56	0	-3.918009996	0	58.97016144	59.01595306	95.94633484	1.0
57	0	-3.918009996	0	56.12134171	58.92699814	95.80980682	1.0
58	0	-3.918009996	0	55.13641357	58.30999374	93.67658997	1.0
[RightToeBase]
55	0	-0.5927900076	1.367989898	0	0	0	1.0
56	0	-0.5927900076	1.367989898	0	0	0	1.0
57	0	-0.5927900076	1.367989898	0	0	0	1.0
58	0	-0.5927900076	1.367989898	0	0	0	1.0
[EndOfFile]
